<svg width="50" height="52" viewBox="0 0 50 52" fill="none" xmlns="http://www.w3.org/2000/svg">
<path d="M25.5022 9C23.6726 9 22.0367 9.53991 20.8315 10.4552C19.8285 11.2145 19.1233 12.2539 18.9123 13.4348H9.22408C8.00726 13.4348 7.00434 14.4367 7.00434 15.6522V28.0788C6.99855 28.125 6.99855 28.1712 7.00434 28.2174V40.7826C7.00434 41.9981 8.00726 43 9.22408 43H41.7803C42.9971 43 44 41.9981 44 40.7826V28.1481C44 28.125 44 28.1019 44 28.0788V15.6522C44 14.4367 42.9971 13.4348 41.7803 13.4348H32.092C31.881 12.2539 31.1758 11.2145 30.1729 10.4552C28.9676 9.53991 27.3317 9 25.5022 9ZM25.5022 10.4783C27.0427 10.4783 28.3607 10.9431 29.2711 11.6332C29.9474 12.1471 30.4012 12.7534 30.5891 13.4348H20.4153C20.6031 12.7534 21.0569 12.1471 21.7332 11.6332C22.6437 10.9431 23.9616 10.4783 25.5022 10.4783ZM9.22408 14.913H41.7803C42.1994 14.913 42.5202 15.2335 42.5202 15.6522V28.0788C42.5173 28.1106 42.5173 28.1394 42.5202 28.1712V28.2174C42.5202 28.636 42.1994 28.9565 41.7803 28.9565H29.2017C29.2017 27.741 28.1988 26.7391 26.982 26.7391H24.0223C22.8055 26.7391 21.8026 27.741 21.8026 28.9565H9.22408C8.80498 28.9565 8.48416 28.636 8.48416 28.2174C8.48994 28.1712 8.48994 28.125 8.48416 28.0788V15.6522C8.48416 15.2335 8.80498 14.913 9.22408 14.913ZM24.0223 28.2174H26.982C27.4011 28.2174 27.7219 28.5379 27.7219 28.9565V29.5571C27.7219 29.5802 27.7219 29.6033 27.7219 29.6264V29.6957C27.7161 29.7505 27.7161 29.8025 27.7219 29.8573V30.4348C27.7219 30.8534 27.4011 31.1739 26.982 31.1739H24.0223C23.6033 31.1739 23.2824 30.8534 23.2824 30.4348V29.8342C23.3027 29.7361 23.3027 29.6321 23.2824 29.534V28.9565C23.2824 28.5379 23.6033 28.2174 24.0223 28.2174ZM8.48416 30.2962C8.71828 30.3799 8.96395 30.4348 9.22408 30.4348H21.8026C21.8026 31.6503 22.8055 32.6522 24.0223 32.6522H26.982C28.1988 32.6522 29.2017 31.6503 29.2017 30.4348H41.7803C42.0404 30.4348 42.2861 30.3799 42.5202 30.2962V40.7826C42.5202 41.2013 42.1994 41.5217 41.7803 41.5217H9.22408C8.80498 41.5217 8.48416 41.2013 8.48416 40.7826V30.2962Z" fill="#141b24"/>
</svg>
