<svg width="58" height="40" viewBox="0 0 58 40" fill="none" xmlns="http://www.w3.org/2000/svg">
<path d="M19.4971 29.4985L9.66489 39.3307L0.747991 30.4138C0.242491 29.9083 0.242491 29.0887 0.747991 28.5831L9.66489 19.6663L19.4971 29.4985Z" fill="#2FB67D"/>
<path d="M28.4147 18.7508C28.9203 19.2564 28.9203 20.076 28.4147 20.5815L19.4979 29.4984L9.66571 19.6662L19.4979 9.83395L28.4147 18.7508Z" fill="#1F6FFF"/>
<path d="M19.4971 9.83385L9.66489 19.666L0.747991 10.7492C0.242491 10.2436 0.242491 9.42404 0.747991 8.91851L9.66489 0.00164795L19.4971 9.83385Z" fill="#38C4F2"/>
<path d="M48.0957 29.9998L38.0963 39.9991L29.0123 30.9151C28.5068 30.4096 28.5068 29.5899 29.0123 29.0844L38.0963 20.0004L48.0957 29.9998Z" fill="#9837E0"/>
<path d="M57.1833 19.0848C57.6888 19.5904 57.6888 20.41 57.1833 20.9155L48.0993 29.9995L38.0999 20.0002L48.0993 10.0008L57.1833 19.0848Z" fill="#E11F59"/>
<path d="M48.0957 10.0009L38.0963 20.0002L29.0123 10.9162C28.5068 10.4107 28.5068 9.59104 29.0123 9.08551L38.0963 0.00149536L48.0957 10.0009Z" fill="#FFBB00"/>
</svg>
