<svg width="50" height="52" viewBox="0 0 50 52" fill="none" xmlns="http://www.w3.org/2000/svg">
<path d="M24.2653 8C21.5362 8 19.3795 9.06288 17.9417 10.6396C16.5039 12.2184 15.7692 14.2891 15.7692 16.3266C15.7692 18.1591 16.1816 20.254 16.3056 20.8472C15.9788 21.1338 15.7692 21.5418 15.7692 22.0004C15.7692 22.3665 15.8819 22.6796 15.9743 22.9861C16.0194 23.1405 16.0645 23.2838 16.0938 23.3919C16.123 23.4999 16.1298 23.6058 16.1298 23.5242C16.1298 24.2916 16.7879 24.8914 17.5631 24.9178C17.669 27.1053 18.7462 29.037 20.3846 30.3094V32.4153C19.553 32.6623 17.5563 33.293 15.5236 34.2324C14.1962 34.8454 12.8621 35.5841 11.8232 36.4596C10.7843 37.335 10 38.3824 10 39.6129V43H40V39.6129C40 38.3824 39.2157 37.335 38.1768 36.4596C37.1379 35.5841 35.8038 34.8454 34.4764 34.2324C32.4437 33.293 30.447 32.6623 29.6154 32.4153V30.3116C31.2538 29.0393 32.331 27.1075 32.4369 24.9178C33.2121 24.8914 33.8702 24.2916 33.8702 23.5242C33.8702 23.6058 33.877 23.4999 33.9062 23.3919C33.9355 23.2838 33.9806 23.1405 34.0257 22.9861C34.1181 22.6796 34.2308 22.3665 34.2308 22.0004C34.2308 21.5374 34.0167 21.1294 33.6877 20.8405C33.7936 20.2451 34.2308 17.696 34.2308 15.9032C34.2308 13.8745 33.4555 12.4213 32.4099 11.5194C31.4701 10.7123 30.3658 10.3882 29.3878 10.3198C29.23 10.075 28.9506 9.69134 28.3714 9.24811C27.5398 8.61523 26.2057 8 24.2653 8ZM24.2653 9.12903C25.96 9.12903 27.0125 9.64283 27.6593 10.139C28.3083 10.6351 28.5224 11.0718 28.5224 11.0718L28.6801 11.3871H29.0385C29.8069 11.3871 30.8413 11.6738 31.6459 12.3684C32.4527 13.063 33.0769 14.1479 33.0769 15.9032C33.0769 17.4777 32.6938 19.7755 32.5811 20.4194C32.5789 20.4194 32.5766 20.4194 32.5721 20.4194C32.5225 20.4194 32.5316 20.4304 32.5 20.4348V18.7258C32.5 16.7941 31.6932 15.4953 30.8819 14.7257C30.0706 13.9561 29.221 13.6738 29.221 13.6738L28.892 13.5658L28.6396 13.8017C28.6396 13.8017 28.2767 14.1501 27.4001 14.5427C26.5234 14.9352 25.1668 15.3387 23.2692 15.3387C22.2303 15.3387 20.8624 15.6981 19.6747 16.5096C18.4916 17.3189 17.5068 18.642 17.5023 20.437C17.4707 20.4326 17.4775 20.4194 17.4279 20.4194C17.4189 20.4194 17.4076 20.4216 17.3986 20.4216C17.2386 19.5968 16.9231 17.7732 16.9231 16.3266C16.9231 14.5559 17.5699 12.7433 18.8026 11.3937C20.0353 10.042 21.8382 9.12903 24.2653 9.12903ZM29.0385 14.8624C29.1782 14.9153 29.5433 15.0278 30.0796 15.535C30.7106 16.1348 31.3462 17.0918 31.3462 18.7258V22.2849L32.2138 21.7865C32.3625 21.7027 32.5 21.6278 32.5969 21.5793C32.6082 21.5726 32.6127 21.5726 32.6239 21.566C32.8876 21.5925 33.0769 21.7733 33.0769 21.9982V22.0004C33.0769 22.0423 33.0071 22.3731 32.9192 22.6686C32.8741 22.8141 32.829 22.9619 32.7907 23.0964C32.7547 23.2309 32.7163 23.3257 32.7163 23.5242C32.7163 23.6741 32.5901 23.8065 32.3918 23.8065H31.3462V24.5783C31.3462 27.639 29.0903 30.1683 26.12 30.6865L25.9555 30.713L25.8316 30.8254C25.6062 31.0261 25.3223 31.1452 25 31.1452C24.6777 31.1452 24.3938 31.0261 24.1684 30.8254L24.0445 30.713L23.88 30.6865C20.9097 30.1683 18.6538 27.639 18.6538 24.5783V23.8065H17.6082C17.4099 23.8065 17.2837 23.6741 17.2837 23.5242C17.2837 23.3257 17.2453 23.2309 17.207 23.0964C17.1687 22.9619 17.1236 22.8141 17.0786 22.6686C16.9907 22.3731 16.9231 22.0423 16.9231 22.0004C16.9231 21.7733 17.1124 21.5925 17.3761 21.566C17.3873 21.5726 17.3918 21.5726 17.4031 21.5793C17.5 21.6278 17.6375 21.7027 17.7862 21.7865L18.6538 22.2849V20.448C18.6538 19.0411 19.3705 18.0951 20.335 17.4358C21.2996 16.7765 22.5255 16.4677 23.2692 16.4677C25.3358 16.4677 26.8637 16.0245 27.8801 15.5702C28.6351 15.2329 28.8334 15.0256 29.0385 14.8624ZM21.8269 21.5484C21.3492 21.5484 20.9615 21.9277 20.9615 22.3952C20.9615 22.8627 21.3492 23.2419 21.8269 23.2419C22.3047 23.2419 22.6923 22.8627 22.6923 22.3952C22.6923 21.9277 22.3047 21.5484 21.8269 21.5484ZM28.1731 21.5484C27.6953 21.5484 27.3077 21.9277 27.3077 22.3952C27.3077 22.8627 27.6953 23.2419 28.1731 23.2419C28.6508 23.2419 29.0385 22.8627 29.0385 22.3952C29.0385 21.9277 28.6508 21.5484 28.1731 21.5484ZM21.5385 31.0459C22.1537 31.3613 22.8185 31.6038 23.5239 31.7428C23.9318 32.0603 24.4366 32.2742 25 32.2742C25.5611 32.2742 26.0637 32.0603 26.4694 31.745C27.177 31.6082 27.8441 31.3657 28.4615 31.0481V33.4032C28.4615 33.6061 28.2993 33.9766 27.9635 34.3757C27.6255 34.777 27.1477 35.196 26.6632 35.5709C25.8226 36.217 25.1825 36.572 24.973 36.6933C24.7634 36.6007 24.1391 36.3405 23.3166 35.7671C22.3655 35.1012 21.5385 34.2037 21.5385 33.4032V31.0459ZM20.4026 33.5973C20.5063 34.9556 21.6241 35.9722 22.645 36.6845C23.7132 37.432 24.7724 37.8753 24.7724 37.8753L25.0361 37.9833L25.2862 37.8466C25.2862 37.8466 26.3251 37.2644 27.3753 36.4573C27.9004 36.056 28.4322 35.5929 28.8514 35.0946C29.23 34.6447 29.541 34.1574 29.6019 33.5973C30.5258 33.8817 32.2318 34.4441 33.9851 35.2555C35.2539 35.8421 36.5159 36.55 37.4241 37.3151C38.3323 38.0803 38.8462 38.8676 38.8462 39.6129V41.871H11.1538V39.6129C11.1538 38.8676 11.6677 38.0803 12.5759 37.3151C13.4841 36.55 14.7461 35.8421 16.0149 35.2555C17.7727 34.4441 19.4809 33.8817 20.4026 33.5973ZM13.4615 39.6129C13.1438 39.6129 12.8846 39.8665 12.8846 40.1774C12.8846 40.4883 13.1438 40.7419 13.4615 40.7419C13.7793 40.7419 14.0385 40.4883 14.0385 40.1774C14.0385 39.8665 13.7793 39.6129 13.4615 39.6129ZM15.7692 39.6129C15.4515 39.6129 15.1923 39.8665 15.1923 40.1774C15.1923 40.4883 15.4515 40.7419 15.7692 40.7419C16.087 40.7419 16.3462 40.4883 16.3462 40.1774C16.3462 39.8665 16.087 39.6129 15.7692 39.6129ZM18.0769 39.6129C17.7592 39.6129 17.5 39.8665 17.5 40.1774C17.5 40.4883 17.7592 40.7419 18.0769 40.7419C18.3947 40.7419 18.6538 40.4883 18.6538 40.1774C18.6538 39.8665 18.3947 39.6129 18.0769 39.6129ZM20.3846 39.6129C20.0669 39.6129 19.8077 39.8665 19.8077 40.1774C19.8077 40.4883 20.0669 40.7419 20.3846 40.7419C20.7024 40.7419 20.9615 40.4883 20.9615 40.1774C20.9615 39.8665 20.7024 39.6129 20.3846 39.6129ZM22.6923 39.6129C22.3745 39.6129 22.1154 39.8665 22.1154 40.1774C22.1154 40.4883 22.3745 40.7419 22.6923 40.7419C23.0101 40.7419 23.2692 40.4883 23.2692 40.1774C23.2692 39.8665 23.0101 39.6129 22.6923 39.6129ZM25 39.6129C24.6822 39.6129 24.4231 39.8665 24.4231 40.1774C24.4231 40.4883 24.6822 40.7419 25 40.7419C25.3178 40.7419 25.5769 40.4883 25.5769 40.1774C25.5769 39.8665 25.3178 39.6129 25 39.6129ZM27.3077 39.6129C26.9899 39.6129 26.7308 39.8665 26.7308 40.1774C26.7308 40.4883 26.9899 40.7419 27.3077 40.7419C27.6255 40.7419 27.8846 40.4883 27.8846 40.1774C27.8846 39.8665 27.6255 39.6129 27.3077 39.6129ZM29.6154 39.6129C29.2976 39.6129 29.0385 39.8665 29.0385 40.1774C29.0385 40.4883 29.2976 40.7419 29.6154 40.7419C29.9331 40.7419 30.1923 40.4883 30.1923 40.1774C30.1923 39.8665 29.9331 39.6129 29.6154 39.6129ZM31.9231 39.6129C31.6053 39.6129 31.3462 39.8665 31.3462 40.1774C31.3462 40.4883 31.6053 40.7419 31.9231 40.7419C32.2408 40.7419 32.5 40.4883 32.5 40.1774C32.5 39.8665 32.2408 39.6129 31.9231 39.6129ZM34.2308 39.6129C33.913 39.6129 33.6538 39.8665 33.6538 40.1774C33.6538 40.4883 33.913 40.7419 34.2308 40.7419C34.5485 40.7419 34.8077 40.4883 34.8077 40.1774C34.8077 39.8665 34.5485 39.6129 34.2308 39.6129ZM36.5385 39.6129C36.2207 39.6129 35.9615 39.8665 35.9615 40.1774C35.9615 40.4883 36.2207 40.7419 36.5385 40.7419C36.8562 40.7419 37.1154 40.4883 37.1154 40.1774C37.1154 39.8665 36.8562 39.6129 36.5385 39.6129Z" fill="#141b24"/>
</svg>
